<svg width="270" height="333" viewBox="0 0 270 333" fill="none" xmlns="http://www.w3.org/2000/svg">
<rect width="270" height="333" fill="#E5E5E5"/>
<rect width="270" height="333" fill="#FFCE00"/>
<path d="M-171 167.445C-88.7788 98.1289 17.4022 56.3447 133.311 56.3447C250.806 56.3447 358.318 99.2568 441 170.316V0H-171V167.445Z" fill="#FF7E1D"/>
<path d="M-171 167.445V202H441V170.316C358.318 99.2569 250.806 56.3447 133.311 56.3447C17.4022 56.3447 -88.7788 98.1289 -171 167.445ZM125.785 113.407C125.733 113.561 125.682 113.715 125.631 113.817C125.529 114.022 125.478 114.279 125.375 114.484C125.273 114.74 125.17 115.048 125.017 115.304C124.966 115.355 124.966 115.458 124.914 115.509C119.027 128.583 104.026 135.145 90.3057 130.275C83.2406 127.762 77.5066 122.482 74.3836 115.714C74.3324 115.56 74.2301 115.407 74.1789 115.304C74.0765 115.099 73.9741 114.843 73.8717 114.638C73.7693 114.33 73.6157 114.022 73.5133 113.715C73.4621 113.612 73.4621 113.561 73.4109 113.458C72.643 111.305 73.7693 108.947 75.8683 108.178C75.9707 108.126 76.0731 108.126 76.1755 108.075C76.2267 108.075 76.2267 108.075 76.2779 108.024C78.0186 107.614 79.8616 108.383 80.7832 109.87C80.8344 109.972 80.8856 110.075 80.988 110.228C81.0392 110.331 81.0904 110.434 81.1415 110.536V110.587C81.1415 110.587 81.1415 110.587 81.1415 110.639C82.6262 114.791 85.442 118.278 89.077 120.585C89.077 120.585 89.077 120.585 89.1282 120.585C89.4353 120.79 89.6913 120.944 89.9985 121.097C89.9985 121.097 90.0497 121.097 90.0497 121.149C90.9712 121.661 91.9952 122.123 93.0191 122.482C94.6062 123.046 96.1932 123.405 97.8315 123.558C98.1387 123.61 98.4459 123.61 98.7531 123.61C99.0602 123.61 99.3674 123.61 99.6746 123.61C99.6746 123.61 99.6746 123.61 99.7258 123.61C100.033 123.61 100.34 123.61 100.647 123.558C100.647 123.558 100.647 123.558 100.699 123.558C101.006 123.558 101.313 123.507 101.62 123.507C101.62 123.507 101.62 123.507 101.671 123.507C101.978 123.456 102.286 123.456 102.593 123.405C102.593 123.405 102.593 123.405 102.644 123.405C102.951 123.353 103.258 123.302 103.514 123.251H103.566C103.873 123.199 104.18 123.097 104.436 123.046C105.921 122.687 107.303 122.123 108.634 121.405C108.685 121.354 108.736 121.354 108.839 121.303C109.043 121.2 109.248 121.046 109.453 120.944C109.555 120.892 109.607 120.841 109.709 120.79C109.914 120.687 110.067 120.533 110.272 120.431C110.375 120.38 110.477 120.277 110.579 120.226C110.733 120.123 110.938 119.97 111.091 119.867C111.194 119.764 111.347 119.713 111.45 119.611C111.603 119.508 111.757 119.406 111.859 119.303C112.064 119.149 112.218 118.995 112.422 118.842C112.474 118.79 112.525 118.739 112.627 118.688C112.883 118.483 113.139 118.226 113.395 117.97C113.446 117.919 113.446 117.919 113.498 117.868C113.702 117.662 113.907 117.457 114.112 117.201C114.163 117.15 114.214 117.098 114.266 117.047C114.419 116.842 114.624 116.637 114.777 116.432C114.829 116.381 114.88 116.278 114.931 116.227C115.085 116.022 115.238 115.817 115.392 115.612C115.443 115.509 115.494 115.458 115.545 115.355C115.699 115.15 115.801 114.945 115.955 114.74C116.006 114.638 116.057 114.535 116.16 114.484C116.262 114.279 116.416 114.074 116.518 113.92C116.569 113.817 116.621 113.715 116.723 113.612C116.825 113.407 116.928 113.253 117.03 113.048C117.081 112.894 117.184 112.792 117.235 112.638C117.286 112.484 117.389 112.33 117.44 112.177C117.491 112.023 117.593 111.869 117.644 111.664C117.696 111.561 117.747 111.459 117.747 111.356C117.849 111.151 117.9 110.946 118.003 110.741C118.771 108.588 121.126 107.46 123.276 108.229C125.017 108.844 126.092 110.536 125.989 112.279C125.989 112.587 125.887 112.997 125.785 113.407ZM237.137 125.917C237.649 126.122 238.16 126.481 238.57 126.891C238.775 127.096 238.928 127.352 239.082 127.557C240.055 129.198 239.799 131.351 238.365 132.684C238.365 132.684 238.365 132.684 238.314 132.736C178.824 187.44 87.3875 187.44 27.8974 132.736C27.4879 132.325 27.1295 131.864 26.9247 131.403C26.2592 129.916 26.4639 128.173 27.6415 126.891C29.1774 125.199 31.7884 125.096 33.4778 126.635C89.8449 178.468 176.418 178.468 232.785 126.635C234.014 125.558 235.703 125.302 237.137 125.917ZM142.731 108.126C142.731 108.075 142.731 108.075 142.731 108.126C144.625 107.46 146.673 108.229 147.645 109.87C147.799 110.126 147.901 110.382 148.004 110.639C149.335 114.432 151.844 117.662 155.018 119.97C155.274 120.175 155.581 120.328 155.837 120.534C155.888 120.585 155.939 120.585 155.99 120.636C156.246 120.79 156.502 120.944 156.758 121.097C156.81 121.149 156.861 121.149 156.912 121.2C157.168 121.354 157.424 121.456 157.68 121.61C157.731 121.61 157.782 121.661 157.834 121.661C158.499 121.969 159.113 122.277 159.83 122.482C160.137 122.584 160.445 122.687 160.752 122.789C160.803 122.789 160.854 122.789 160.905 122.841C161.161 122.943 161.417 122.994 161.724 123.046C161.827 123.046 161.878 123.097 161.98 123.097C162.185 123.148 162.441 123.199 162.697 123.251C162.8 123.251 162.902 123.302 163.004 123.302C163.209 123.353 163.414 123.353 163.619 123.405C163.721 123.405 163.875 123.456 163.977 123.456C164.182 123.456 164.335 123.507 164.54 123.507C164.694 123.507 164.847 123.507 164.95 123.558C165.103 123.558 165.308 123.558 165.462 123.61C165.615 123.61 165.769 123.61 165.923 123.61C166.076 123.61 166.23 123.61 166.434 123.61C166.588 123.61 166.742 123.61 166.946 123.61C167.1 123.61 167.254 123.61 167.407 123.61C167.561 123.61 167.766 123.61 167.919 123.558C168.073 123.558 168.226 123.558 168.329 123.507C168.534 123.507 168.687 123.456 168.892 123.456C168.994 123.456 169.148 123.405 169.25 123.405C169.455 123.353 169.66 123.353 169.865 123.302C169.967 123.302 170.069 123.251 170.172 123.251C170.428 123.199 170.633 123.148 170.889 123.097C170.991 123.097 171.042 123.046 171.145 123.046C171.401 122.994 171.657 122.892 171.964 122.841C172.015 122.841 172.066 122.841 172.117 122.789C172.424 122.687 172.732 122.584 173.039 122.482C173.704 122.225 174.37 121.969 175.035 121.661C175.087 121.661 175.138 121.61 175.189 121.61C175.445 121.456 175.701 121.354 175.957 121.2C176.008 121.149 176.059 121.149 176.111 121.097C176.367 120.944 176.623 120.79 176.879 120.636C176.93 120.585 176.981 120.585 177.032 120.534C177.288 120.38 177.595 120.175 177.851 119.97C181.077 117.662 183.534 114.432 184.865 110.639C185.633 108.485 187.988 107.357 190.138 108.126C191.367 108.537 192.237 109.511 192.647 110.639C192.698 110.741 192.749 110.895 192.749 110.997C192.954 111.766 192.954 112.638 192.647 113.407C192.34 114.279 191.981 115.099 191.623 115.919C191.572 115.971 191.572 116.073 191.521 116.124C191.367 116.432 191.213 116.74 191.06 117.047C191.009 117.15 190.958 117.252 190.906 117.355C190.702 117.714 190.548 118.021 190.343 118.329C190.19 118.534 190.087 118.79 189.934 118.995C189.882 119.098 189.78 119.201 189.729 119.303C189.575 119.559 189.422 119.816 189.217 120.021C189.166 120.072 189.166 120.123 189.114 120.175C186.452 123.917 182.971 126.84 179.029 128.89C178.978 128.942 178.875 128.942 178.824 128.993C178.568 129.095 178.312 129.249 178.056 129.352C177.954 129.403 177.902 129.454 177.8 129.454C177.544 129.557 177.288 129.711 176.981 129.813C176.367 130.07 175.752 130.275 175.138 130.48C175.087 130.48 174.984 130.531 174.933 130.531C174.677 130.634 174.421 130.685 174.114 130.787C174.012 130.839 173.909 130.839 173.807 130.89C173.551 130.941 173.244 131.044 172.988 131.095C172.885 131.095 172.834 131.146 172.732 131.146C171.401 131.454 170.069 131.659 168.738 131.761C168.687 131.761 168.636 131.761 168.585 131.761C168.278 131.761 167.919 131.813 167.612 131.813C167.561 131.813 167.51 131.813 167.458 131.813C166.076 131.864 164.643 131.813 163.26 131.659H163.209C162.851 131.608 162.544 131.556 162.185 131.505C162.185 131.505 162.185 131.505 162.134 131.505C161.11 131.351 160.137 131.146 159.113 130.839C159.062 130.839 159.011 130.787 158.96 130.787C158.653 130.685 158.346 130.634 158.038 130.531C157.987 130.531 157.936 130.48 157.885 130.48C157.629 130.377 157.373 130.326 157.168 130.223C156.451 129.967 155.735 129.659 155.069 129.352H155.018C148.209 126.276 142.884 120.482 140.324 113.356C139.505 111.203 140.58 108.895 142.731 108.126Z" fill="#FFCE00"/>
<path d="M123.276 108.126C121.126 107.357 118.771 108.485 118.003 110.639C117.952 110.844 117.849 111.049 117.747 111.254C117.696 111.356 117.644 111.459 117.644 111.561C117.593 111.715 117.491 111.869 117.44 112.074C117.388 112.228 117.286 112.382 117.235 112.536C117.184 112.689 117.081 112.792 117.03 112.946C116.928 113.151 116.825 113.305 116.723 113.51C116.672 113.612 116.621 113.715 116.518 113.817C116.416 114.022 116.313 114.227 116.16 114.381C116.109 114.484 116.057 114.586 115.955 114.638C115.801 114.843 115.699 115.048 115.545 115.253C115.494 115.355 115.443 115.407 115.392 115.509C115.238 115.714 115.085 115.919 114.931 116.124C114.88 116.176 114.829 116.278 114.777 116.329C114.624 116.535 114.419 116.74 114.266 116.945C114.214 116.996 114.163 117.047 114.112 117.098C113.907 117.304 113.702 117.509 113.498 117.765C113.446 117.816 113.446 117.816 113.395 117.868C113.139 118.124 112.883 118.329 112.627 118.585C112.576 118.637 112.525 118.688 112.422 118.739C112.218 118.893 112.064 119.047 111.859 119.201C111.706 119.303 111.552 119.406 111.45 119.508C111.347 119.611 111.194 119.713 111.091 119.764C110.938 119.867 110.733 120.021 110.579 120.123C110.477 120.175 110.375 120.277 110.272 120.328C110.067 120.431 109.914 120.585 109.709 120.687C109.607 120.739 109.555 120.79 109.453 120.841C109.248 120.944 109.043 121.097 108.839 121.2C108.787 121.251 108.736 121.251 108.634 121.303C107.303 122.02 105.869 122.533 104.436 122.943C104.129 122.994 103.873 123.097 103.565 123.148H103.514C103.207 123.199 102.9 123.251 102.644 123.302C102.644 123.302 102.644 123.302 102.593 123.302C102.286 123.353 101.978 123.405 101.671 123.405C101.671 123.405 101.671 123.405 101.62 123.405C101.313 123.456 101.006 123.456 100.699 123.456C100.699 123.456 100.698 123.456 100.647 123.456C100.34 123.456 100.033 123.507 99.7258 123.507C99.7258 123.507 99.7258 123.507 99.6746 123.507C99.3674 123.507 99.0602 123.507 98.7531 123.507C98.4459 123.507 98.1387 123.456 97.8315 123.456C96.2444 123.302 94.6062 122.943 93.0191 122.379C91.9951 122.02 91.0224 121.559 90.0497 121.046C90.0497 121.046 89.9985 121.046 89.9985 120.995C89.6913 120.841 89.3841 120.636 89.1282 120.482C89.1282 120.482 89.1281 120.482 89.077 120.482C85.442 118.175 82.6262 114.689 81.1415 110.536C81.1415 110.536 81.1415 110.536 81.1415 110.485V110.433C81.0903 110.331 81.0391 110.228 80.988 110.126C80.9368 110.023 80.8855 109.921 80.7832 109.767C79.8616 108.229 78.0698 107.46 76.2779 107.921C76.2267 107.921 76.2267 107.921 76.1755 107.973C76.0731 108.024 75.9707 108.024 75.8683 108.075C73.7181 108.844 72.5918 111.203 73.3597 113.356C73.4109 113.458 73.4109 113.51 73.4621 113.612C73.5645 113.92 73.6669 114.227 73.8205 114.535C73.9229 114.74 74.0252 114.996 74.1276 115.202C74.1788 115.355 74.2812 115.509 74.3324 115.612C78.8377 125.404 88.6674 131.761 99.521 131.761C110.477 131.761 120.358 125.302 124.812 115.407C124.863 115.355 124.863 115.253 124.914 115.202C125.017 114.945 125.17 114.689 125.273 114.381C125.375 114.176 125.426 113.971 125.529 113.715C125.58 113.561 125.631 113.407 125.682 113.253C125.836 112.843 125.887 112.433 125.938 112.023C126.092 110.382 125.017 108.742 123.276 108.126Z" fill="#413D45"/>
<path d="M142.782 108.075C140.632 108.844 139.505 111.203 140.273 113.356C142.884 120.585 148.26 126.276 154.967 129.352H155.018C155.939 129.762 156.861 130.121 157.834 130.428C157.885 130.428 157.936 130.48 157.987 130.48C158.294 130.582 158.602 130.685 158.909 130.736C158.96 130.736 159.011 130.787 159.062 130.787C160.035 131.044 161.059 131.3 162.083 131.454C162.083 131.454 162.083 131.454 162.134 131.454C162.492 131.505 162.8 131.556 163.158 131.608H163.209C164.284 131.71 165.359 131.813 166.435 131.813C166.793 131.813 167.1 131.813 167.458 131.813C167.51 131.813 167.561 131.813 167.612 131.813C167.919 131.813 168.278 131.761 168.585 131.761C168.636 131.761 168.687 131.761 168.738 131.761C170.121 131.659 171.452 131.454 172.732 131.146C172.834 131.146 172.885 131.095 172.988 131.095C173.244 131.044 173.551 130.941 173.807 130.89C173.909 130.839 174.012 130.839 174.114 130.787C174.37 130.685 174.626 130.634 174.933 130.531C174.984 130.531 175.087 130.48 175.138 130.48C175.752 130.275 176.367 130.07 176.981 129.813C177.237 129.711 177.493 129.608 177.8 129.454C177.902 129.403 177.954 129.352 178.056 129.352C178.312 129.249 178.568 129.095 178.824 128.993C178.875 128.942 178.978 128.942 179.029 128.89C183.022 126.891 186.503 123.866 189.114 120.175C189.166 120.123 189.166 120.072 189.217 120.021C189.37 119.764 189.575 119.508 189.729 119.303C189.78 119.201 189.882 119.098 189.934 118.995C190.087 118.79 190.19 118.585 190.343 118.329C190.548 118.021 190.753 117.662 190.906 117.355C190.958 117.252 191.009 117.15 191.06 117.047C191.214 116.74 191.367 116.432 191.521 116.124C191.572 116.073 191.572 115.971 191.623 115.919C191.981 115.099 192.34 114.279 192.647 113.407C192.954 112.587 192.954 111.766 192.749 110.997C192.698 110.895 192.698 110.741 192.647 110.639C192.237 109.511 191.367 108.588 190.19 108.178C188.039 107.409 185.684 108.537 184.916 110.69C183.534 114.586 181.025 117.816 177.851 120.021C177.595 120.226 177.288 120.38 177.032 120.585C176.981 120.636 176.93 120.636 176.879 120.687C176.623 120.841 176.367 120.995 176.111 121.149C176.059 121.2 176.008 121.2 175.957 121.251C175.701 121.405 175.445 121.508 175.189 121.661C175.138 121.661 175.087 121.713 175.036 121.713C174.114 122.174 173.141 122.533 172.117 122.841C172.066 122.841 172.015 122.841 171.964 122.892C171.708 122.994 171.452 123.046 171.145 123.097C171.042 123.097 170.991 123.148 170.889 123.148C170.684 123.199 170.428 123.251 170.172 123.302C170.069 123.302 169.967 123.353 169.865 123.353C169.66 123.405 169.455 123.405 169.25 123.456C169.148 123.456 168.994 123.507 168.892 123.507C168.687 123.507 168.534 123.558 168.329 123.558C168.175 123.558 168.022 123.558 167.919 123.61C167.766 123.61 167.561 123.61 167.407 123.661C167.254 123.661 167.1 123.661 166.946 123.661C166.793 123.661 166.639 123.661 166.435 123.661C166.281 123.661 166.127 123.661 165.923 123.661C165.769 123.661 165.615 123.661 165.462 123.661C165.308 123.661 165.103 123.661 164.95 123.61C164.796 123.61 164.643 123.61 164.54 123.558C164.335 123.558 164.182 123.507 163.977 123.507C163.875 123.507 163.721 123.456 163.619 123.456C163.414 123.405 163.209 123.405 163.004 123.353C162.902 123.353 162.8 123.302 162.697 123.302C162.441 123.251 162.236 123.199 161.98 123.148C161.878 123.148 161.827 123.097 161.724 123.097C161.468 123.046 161.212 122.943 160.905 122.892C160.854 122.892 160.803 122.892 160.752 122.841C160.445 122.738 160.137 122.636 159.83 122.533C159.165 122.277 158.499 122.02 157.834 121.713C157.782 121.713 157.731 121.661 157.68 121.661C157.424 121.508 157.168 121.405 156.912 121.251C156.861 121.2 156.81 121.2 156.758 121.149C156.502 120.995 156.246 120.841 155.99 120.687C155.939 120.636 155.888 120.636 155.837 120.585C155.581 120.431 155.274 120.226 155.018 120.021C151.792 117.714 149.335 114.484 148.004 110.69C147.901 110.433 147.799 110.177 147.646 109.921C146.673 108.178 144.625 107.409 142.782 108.075Z" fill="#413D45"/>
<path d="M33.4778 126.686C31.8395 125.148 29.2285 125.25 27.6927 126.942C26.5151 128.224 26.3104 129.967 26.9759 131.454C27.1807 131.915 27.5391 132.377 27.9486 132.787C87.4387 187.491 178.875 187.491 238.365 132.787C239.85 131.454 240.106 129.301 239.133 127.66C238.98 127.404 238.826 127.198 238.621 126.993C238.212 126.532 237.7 126.224 237.188 125.968C235.754 125.353 234.014 125.609 232.836 126.737C176.418 178.519 89.8449 178.519 33.4778 126.686Z" fill="#413D45"/>
</svg>
